PathFileType  4	(X/Y/Z) C:\Users\wagnerel85475\Documents\Thesis\opencap-core\Data\3375ffbc-daeb-4a43-b4f7-ac9899cd4c71\MarkerData\PreAugmentation
DataRate	CameraRate	NumFrames	NumMarkers	Units	OrigDataRate	OrigDataStartFrame	OrigNumFrames
60.0	60.0	10	20	m	60.0	1	469
Frame#	Time	Neck			RShoulder			RElbow			RWrist			LShoulder			LElbow			LWrist			midHip			RHip			RKnee			RAnkle			LHip			LKnee			LAnkle			LBigToe			LSmallToe			LHeel			RBigToe			RSmallToe			RHeel			
		X1	Y1	Z1	X2	Y2	Z2	X3	Y3	Z3	X4	Y4	Z4	X5	Y5	Z5	X6	Y6	Z6	X7	Y7	Z7	X8	Y8	Z8	X9	Y9	Z9	X10	Y10	Z10	X11	Y11	Z11	X12	Y12	Z12	X13	Y13	Z13	X14	Y14	Z14	X15	Y15	Z15	X16	Y16	Z16	X17	Y17	Z17	X18	Y18	Z18	X19	Y19	Z19	X20	Y20	Z20	

1	0.0000000	-1.0508800	1.3761500	-0.0767700	-1.0280700	1.3647900	0.0954400	-1.0452200	1.0418100	0.1762000	-0.9804900	0.7634500	0.2023300	-1.0564300	1.4059900	-0.2503200	-0.8713100	1.5874500	-0.4550800	-0.7525000	1.8396600	-0.4272700	-0.9688400	0.7961500	-0.0828200	-0.9756300	0.7934500	0.0298700	-1.0228600	0.3352300	0.0292000	-1.1430100	-0.1942300	0.0759100	-0.9379200	0.7979600	-0.2011300	-1.0846000	0.3055600	-0.2003000	-1.0927700	-0.1966100	-0.2473700	-0.8875300	-0.2496400	-0.2847800	-0.9531500	-0.2472400	-0.3275700	-1.1717300	-0.2602600	-0.2006800	-0.9275300	-0.2701300	0.1228300	-0.9930400	-0.2508000	0.1812300	-1.1633500	-0.2574800	0.0499700
2	0.0166667	-1.0510100	1.3761700	-0.0767500	-1.0281600	1.3648100	0.0954200	-1.0451700	1.0418600	0.1762100	-0.9804000	0.7632700	0.2023500	-1.0564200	1.4107100	-0.2502700	-0.8748900	1.5980000	-0.4489700	-0.7603000	1.8513100	-0.4231100	-0.9688600	0.7961200	-0.0828400	-0.9750300	0.7934500	0.0300000	-1.0214300	0.3383600	0.0293000	-1.1430600	-0.1942700	0.0758900	-0.9374400	0.7978300	-0.2010100	-1.0872600	0.3042600	-0.2010600	-1.0925600	-0.1980900	-0.2475100	-0.8876000	-0.2496200	-0.2848500	-0.9531800	-0.2473700	-0.3275900	-1.1707700	-0.2624000	-0.2008800	-0.9328700	-0.2715100	0.1248900	-0.9930700	-0.2507000	0.1812500	-1.1634800	-0.2575300	0.0499300
3	0.0333333	-1.0511400	1.3762000	-0.0767400	-1.0282100	1.3647300	0.0954100	-1.0448700	1.0417800	0.1762800	-0.9803100	0.7631100	0.2023800	-1.0565300	1.4126200	-0.2502500	-0.8796900	1.6074500	-0.4434800	-0.7617100	1.8622100	-0.4192400	-0.9688600	0.7962000	-0.0828500	-0.9746100	0.7935600	0.0300900	-1.0183100	0.3407700	0.0299800	-1.1431100	-0.1942900	0.0758800	-0.9370900	0.7979700	-0.2009100	-1.0855600	0.3051500	-0.2005700	-1.0923400	-0.2002300	-0.2477100	-0.8872100	-0.2485800	-0.2850400	-0.9532200	-0.2474000	-0.3275900	-1.1701700	-0.2639100	-0.2010300	-0.9388300	-0.2730800	0.1271700	-0.9931100	-0.2507100	0.1812500	-1.1635900	-0.2575700	0.0499100
4	0.0500000	-1.0512600	1.3762100	-0.0767400	-1.0281900	1.3646900	0.0954000	-1.0444700	1.0418200	0.1763600	-0.9801300	0.7633900	0.2023500	-1.0566600	1.4128800	-0.2502300	-0.8831500	1.6159700	-0.4372700	-0.7628300	1.8773200	-0.4163500	-0.9688400	0.7961800	-0.0828600	-0.9745900	0.7935500	0.0300900	-1.0165500	0.3408700	0.0304900	-1.1431200	-0.1943000	0.0758700	-0.9370200	0.7979600	-0.2008800	-1.0819600	0.3075100	-0.1995100	-1.0922700	-0.2012800	-0.2478100	-0.8865700	-0.2467800	-0.2852900	-0.9532200	-0.2474600	-0.3275700	-1.1699900	-0.2644300	-0.2010900	-0.9431800	-0.2742200	0.1288100	-0.9931800	-0.2506700	0.1812500	-1.1636500	-0.2575800	0.0498900
5	0.0666667	-1.0513400	1.3762400	-0.0767400	-1.0281600	1.3647300	0.0954100	-1.0459100	1.0417100	0.1760300	-0.9797300	0.7646400	0.2022300	-1.0566500	1.4137000	-0.2502400	-0.8821800	1.6226300	-0.4297900	-0.7689900	1.8965000	-0.4141700	-0.9689300	0.7961900	-0.0828200	-0.9747000	0.7935400	0.0300600	-1.0164500	0.3391200	0.0306800	-1.1431000	-0.1943000	0.0758700	-0.9370300	0.7981000	-0.2008700	-1.0804200	0.3097400	-0.1988800	-1.0923400	-0.2002300	-0.2477100	-0.8861700	-0.2454400	-0.2854600	-0.9532400	-0.2474100	-0.3275600	-1.1702400	-0.2638000	-0.2010300	-0.9443300	-0.2745300	0.1292400	-0.9931900	-0.2506900	0.1812500	-1.1636300	-0.2575800	0.0498900
6	0.0833333	-1.0513700	1.3762700	-0.0767500	-1.0281600	1.3647600	0.0954200	-1.0513400	1.0414500	0.1748700	-0.9792100	0.7663700	0.2020000	-1.0565300	1.4159900	-0.2502500	-0.8787700	1.6274700	-0.4217000	-0.7779200	1.9132700	-0.4122700	-0.9692000	0.7961500	-0.0827300	-0.9747600	0.7935100	0.0300300	-1.0167300	0.3381100	0.0307600	-1.1430700	-0.1942800	0.0758800	-0.9369900	0.7982000	-0.2008500	-1.0812200	0.3106500	-0.1986100	-1.0925200	-0.1981200	-0.2475000	-0.8859600	-0.2451400	-0.2855000	-0.9532000	-0.2474200	-0.3275600	-1.1708500	-0.2622600	-0.2008700	-0.9427200	-0.2741200	0.1286600	-0.9931700	-0.2507200	0.1812600	-1.1636000	-0.2575700	0.0499000
7	0.1000000	-1.0513600	1.3763100	-0.0767400	-1.0281800	1.3647800	0.0954300	-1.0587700	1.0410300	0.1733100	-0.9790100	0.7676800	0.2018200	-1.0565300	1.4190300	-0.2502800	-0.8810000	1.6326000	-0.4140500	-0.7850200	1.9230000	-0.4100700	-0.9693200	0.7961700	-0.0827000	-0.9747900	0.7935500	0.0300000	-1.0168600	0.3392200	0.0308400	-1.1430600	-0.1942400	0.0758800	-0.9370400	0.7982000	-0.2008700	-1.0828000	0.3095300	-0.1983300	-1.0926800	-0.1966700	-0.2473500	-0.8858800	-0.2452100	-0.2855100	-0.9531200	-0.2474300	-0.3275800	-1.1715400	-0.2607100	-0.2007200	-0.9394200	-0.2732500	0.1274400	-0.9931300	-0.2507100	0.1812700	-1.1635500	-0.2575600	0.0499100
8	0.1166667	-1.0513100	1.3763300	-0.0767300	-1.0282000	1.3647600	0.0954400	-1.0636400	1.0408500	0.1722900	-0.9792300	0.7679400	0.2018500	-1.0565600	1.4215800	-0.2502900	-0.8909400	1.6393900	-0.4076300	-0.7903400	1.9272200	-0.4063600	-0.9680600	0.7962800	-0.0831200	-0.9748000	0.7935400	0.0299800	-1.0169000	0.3410600	0.0309200	-1.1430600	-0.1942500	0.0758900	-0.9373400	0.7981800	-0.2009600	-1.0834100	0.3071600	-0.1982000	-1.0927100	-0.1963400	-0.2473200	-0.8859500	-0.2453000	-0.2854900	-0.9531200	-0.2473500	-0.3276000	-1.1715000	-0.2609800	-0.2007600	-0.9363400	-0.2724500	0.1262800	-0.9930900	-0.2507200	0.1812800	-1.1635200	-0.2575400	0.0499300
9	0.1333333	-1.0512700	1.3763400	-0.0767200	-1.0282000	1.3647000	0.0954500	-1.0662500	1.0407600	0.1717500	-0.9792800	0.7677600	0.2020400	-1.0562200	1.4226900	-0.2502600	-0.9012800	1.6477600	-0.4023300	-0.8007900	1.9309800	-0.3999300	-0.9649100	0.7965600	-0.0841700	-0.9748100	0.7935400	0.0299700	-1.0168600	0.3416000	0.0309400	-1.1430600	-0.1942700	0.0759100	-0.9373900	0.7982300	-0.2009700	-1.0813800	0.3060200	-0.1988200	-1.0927200	-0.1965300	-0.2473400	-0.8863400	-0.2454800	-0.2853800	-0.9531100	-0.2473600	-0.3276100	-1.1709900	-0.2621000	-0.2008700	-0.9340800	-0.2718500	0.1253400	-0.9932000	-0.2507600	0.1812500	-1.1635000	-0.2575700	0.0499500
10	0.1500000	-1.0512000	1.3763500	-0.0767000	-1.0281700	1.3647100	0.0954700	-1.0711800	1.0404700	0.1707500	-0.9777200	0.7677100	0.2016900	-1.0555700	1.4226100	-0.2501900	-0.9072800	1.6563700	-0.3977200	-0.8207200	1.9360600	-0.3908400	-0.9615700	0.7969200	-0.0852800	-0.9748200	0.7936000	0.0299500	-1.0168400	0.3413200	0.0309500	-1.1430800	-0.1943100	0.0759100	-0.9358200	0.7984400	-0.2005400	-1.0757400	0.3074500	-0.2005700	-1.0927500	-0.1966600	-0.2473700	-0.8868500	-0.2455200	-0.2852300	-0.9531200	-0.2473600	-0.3276100	-1.1705700	-0.2620000	-0.2007700	-0.9314400	-0.2711500	0.1241200	-0.9936000	-0.2508000	0.1811600	-1.1635100	-0.2575800	0.0499700
